<svg xmlns="http://www.w3.org/2000/svg" viewBox="0 0 24 24" width="24" height="24">
    <path fill="#ffffff" d="M12 .297c-6.63 0-12 5.373-12 12 0 5.303 3.438 9.8 8.205 11.387.6.113.82-.258.82-.577 0-.285-.01-1.04-.015-2.04-3.338.724-4.042-1.61-4.042-1.61-.546-1.387-1.333-1.757-1.333-1.757-1.09-.744.083-.729.083-.729 1.205.085 1.838 1.236 1.838 1.236 1.07 1.835 2.809 1.305 3.495.998.108-.775.417-1.305.76-1.605-2.665-.3-5.467-1.332-5.467-5.93 0-1.31.467-2.38 1.235-3.22-.123-.303-.535-1.523.117-3.176 0 0 1.008-.322 3.3 1.23.957-.266 1.983-.399 3.005-.404 1.02.005 2.047.138 3.005.404 2.29-1.552 3.298-1.23 3.298-1.23.653 1.653.242 2.873.12 3.176.77.84 1.233 1.91 1.233 3.22 0 4.61-2.807 5.625-5.48 5.92.43.37.823 1.102.823 2.222 0 1.606-.014 2.896-.014 3.292 0 .322.218.694.825.576 4.765-1.587 8.2-6.084 8.2-11.387 0-6.627-5.373-12-12-12z"/>
</svg>
